<?xml version="1.0" encoding="UTF-8" standalone="no"?>
<!-- Created with Inkscape (http://www.inkscape.org/) -->

<svg width="33.604301mm" height="31.542543mm" viewBox="0 0 33.604301 31.542543" version="1.1" id="svg1" xml:space="preserve" sodipodi:docname="bloop_icon.svg" inkscape:version="1.3 (0e150ed6c4, 2023-07-21)" xmlns:inkscape="http://www.inkscape.org/namespaces/inkscape" xmlns:sodipodi="http://sodipodi.sourceforge.net/DTD/sodipodi-0.dtd" xmlns:xlink="http://www.w3.org/1999/xlink" xmlns="http://www.w3.org/2000/svg" xmlns:svg="http://www.w3.org/2000/svg"><sodipodi:namedview id="namedview1" pagecolor="#505050" bordercolor="#eeeeee" borderopacity="1" inkscape:showpageshadow="0" inkscape:pageopacity="0" inkscape:pagecheckerboard="0" inkscape:deskcolor="#505050" inkscape:document-units="mm" showgrid="false" inkscape:zoom="3.8214449" inkscape:cx="53.644631" inkscape:cy="65.812803" inkscape:window-width="3840" inkscape:window-height="2126" inkscape:window-x="5749" inkscape:window-y="-11" inkscape:window-maximized="1" inkscape:current-layer="layer1" /><defs id="defs1" /><g inkscape:label="Layer 1" inkscape:groupmode="layer" id="layer1" transform="translate(-73.625412,-131.30548)"><path style="fill:#ffffff" d="m 127.32731,163.62291 c -0.87312,0.0903 -2.42094,0.0866 -3.43958,-0.008 -1.01864,-0.0949 -2.44739,-0.37696 -3.175,-0.62688 -0.7276,-0.24992 -1.87882,-0.73517 -2.55826,-1.07833 -0.67943,-0.34317 -1.94535,-1.21482 -2.81314,-1.937 -0.86779,-0.72218 -2.14258,-2.1626 -2.83286,-3.20094 -0.69028,-1.03833 -1.54629,-2.7253 -1.90223,-3.74882 -0.40128,-1.15387 -0.70019,-2.72978 -0.78671,-4.14765 -0.0954,-1.56389 -0.007,-2.91396 0.27992,-4.27108 0.2307,-1.09141 0.8568,-2.87735 1.39132,-3.96875 0.71347,-1.4568 1.50582,-2.51433 2.98024,-3.97766 1.18382,-1.17491 2.68037,-2.34533 3.64511,-2.85076 0.9002,-0.47162 2.55636,-1.09269 3.68035,-1.38016 1.12398,-0.28747 2.76871,-0.52061 3.65494,-0.51808 0.88622,0.002 2.44476,0.17958 3.4634,0.39345 1.01865,0.21386 2.74505,0.8249 3.83646,1.35786 1.46773,0.71673 2.50851,1.49772 3.99749,2.99971 1.44018,1.45274 2.28837,2.58984 2.98025,3.99535 0.53192,1.08056 1.15549,2.85763 1.38571,3.94904 0.27338,1.29597 0.37497,2.72688 0.29284,4.1247 -0.0692,1.17717 -0.39842,3.00425 -0.73168,4.06016 -0.34655,1.09807 -1.18234,2.78262 -1.95257,3.93547 -0.78164,1.16992 -2.01172,2.55593 -2.93175,3.30339 -0.87179,0.70827 -2.24293,1.62354 -3.04697,2.03393 -0.80403,0.4104 -1.99466,0.89265 -2.64583,1.07167 -0.65117,0.17903 -1.89832,0.39938 -2.77145,0.48968 z m -0.79375,-2.53437 c 0.72761,-0.0657 2.09682,-0.34379 3.04271,-0.61808 0.94589,-0.2743 2.29888,-0.86683 3.00665,-1.31672 0.70777,-0.4499 1.84134,-1.38727 2.51903,-2.08303 0.6777,-0.69577 1.61295,-1.97943 2.07833,-2.85257 0.46538,-0.87315 1.02846,-2.28747 1.25128,-3.14293 0.22282,-0.85547 0.40513,-2.27927 0.40513,-3.16401 0,-0.88474 -0.18222,-2.31824 -0.40494,-3.18556 -0.22271,-0.86732 -0.72003,-2.23178 -1.10516,-3.03215 -0.40212,-0.83567 -1.44064,-2.19738 -2.43934,-3.19846 -1.16041,-1.16318 -2.31137,-2.01233 -3.4589,-2.55188 -0.94588,-0.44475 -2.35073,-0.94021 -3.12187,-1.10102 -0.77115,-0.16081 -1.98568,-0.29239 -2.69896,-0.29239 -0.71328,0 -1.92781,0.13158 -2.69895,0.29239 -0.77115,0.16081 -2.17599,0.65627 -3.12188,1.10102 -1.14431,0.53804 -2.30312,1.39195 -3.46304,2.55188 -1.1647,1.1647 -2.01055,2.31402 -2.54863,3.46304 -0.44296,0.94589 -0.95419,2.36111 -1.13607,3.14494 -0.19946,0.85961 -0.27524,2.277 -0.19096,3.57187 0.0816,1.25329 0.38308,2.78984 0.72444,3.69195 0.3216,0.84987 1.08032,2.26943 1.68606,3.15458 0.60575,0.88516 1.83472,2.17233 2.73106,2.86039 0.89634,0.68806 2.31704,1.50819 3.15713,1.8225 0.84008,0.31432 2.18813,0.66871 2.99569,0.78754 0.80755,0.11883 2.06359,0.16235 2.79119,0.0967 z m -1.30536,-2.75529 c -0.3007,-0.0159 -1.07656,-0.13286 -1.72414,-0.25982 -0.64758,-0.12696 -1.80345,-0.54758 -2.56861,-0.93471 -0.76515,-0.38713 -1.93852,-1.25122 -2.60749,-1.92019 -0.66897,-0.66897 -1.58706,-1.96941 -2.0402,-2.88987 -0.64423,-1.30861 -0.84985,-2.12188 -0.94291,-3.72945 -0.084,-1.45145 0.0132,-2.51602 0.33084,-3.62091 0.24743,-0.86076 0.80767,-2.12727 1.24499,-2.81448 0.43732,-0.6872 1.22567,-1.62748 1.75189,-2.08951 0.52622,-0.46203 1.73631,-1.20946 2.68909,-1.66095 1.55943,-0.73898 1.98317,-0.82091 4.24586,-0.82091 2.27479,0 2.68194,0.0798 4.28644,0.83989 0.97784,0.46325 2.32165,1.38865 2.99656,2.06356 0.67492,0.67492 1.60032,2.01872 2.06357,2.99657 0.76928,1.62385 0.83989,1.99533 0.83989,4.41873 0,2.32071 -0.0876,2.83286 -0.71329,4.16789 -0.39231,0.83713 -1.31318,2.15635 -2.04638,2.9316 -0.7332,0.77525 -1.96003,1.71619 -2.72629,2.09097 -0.76627,0.37478 -2.09968,0.81173 -2.96316,0.971 -0.86347,0.15927 -1.81597,0.27654 -2.11666,0.26059 z m 0.73192,-5.07603 c 3.80601,-0.0494 4.22335,-0.10132 4.56406,-0.56794 0.28826,-0.39478 0.37501,-1.53894 0.37501,-4.94594 0,-4.28032 -0.0202,-4.44647 -0.58804,-4.84422 -0.47255,-0.33099 -1.41681,-0.41188 -4.80781,-0.41188 -3.55525,0 -4.29597,0.069 -4.70363,0.43788 -0.43185,0.39082 -0.48385,0.91145 -0.48385,4.84423 0,3.12627 0.0961,4.52748 0.33073,4.82334 0.1819,0.22936 0.50932,0.48494 0.7276,0.56795 0.21828,0.083 2.28195,0.12648 4.58593,0.0966 z" id="path1" /><g id="logo" transform="matrix(0.30165131,0,0,0.30165131,161.68158,147.28412)"><path id="r" stroke="#000000" stroke-width="1" stroke-linejoin="round" d="M -9,-15 H 4 c 8,0 8,8 0,8 H -9 Z M -40,22 H 0 V 11 H -9 V 3 H 1 C 12,3 6,22 15,22 H 40 V 3 h -6 v 2 c 0,8 -9,7 -10,2 -1,-5 -5,-9 -6,-9 15,-8 6,-24 -6,-24 h -47 v 11 h 10 v 26 h -15 z" style="fill:#ffffff;fill-opacity:1;stroke:#ffffff;stroke-opacity:1" transform="translate(0.5,0.5)" /><g id="gear" mask="url(#holes)"><circle r="43" fill="none" stroke="#000000" stroke-width="9" id="circle1" cx="0" cy="0" style="stroke:#ffffff;stroke-opacity:1" /><g id="cogs"><polygon id="cog" stroke="#000000" stroke-width="3" stroke-linejoin="round" points="46,3 51,0 46,-3 " style="stroke:#ffffff;stroke-opacity:1" /><use xlink:href="#cog" transform="rotate(11.25)" id="use1" /><use xlink:href="#cog" transform="rotate(22.5)" id="use2" /><use xlink:href="#cog" transform="rotate(33.75)" id="use3" /><use xlink:href="#cog" transform="rotate(45)" id="use4" /><use xlink:href="#cog" transform="rotate(56.25)" id="use5" /><use xlink:href="#cog" transform="rotate(67.5)" id="use6" /><use xlink:href="#cog" transform="rotate(78.75)" id="use7" /><use xlink:href="#cog" transform="rotate(90)" id="use8" /><use xlink:href="#cog" transform="rotate(101.25)" id="use9" /><use xlink:href="#cog" transform="rotate(112.5)" id="use10" /><use xlink:href="#cog" transform="rotate(123.75)" id="use11" /><use xlink:href="#cog" transform="rotate(135)" id="use12" /><use xlink:href="#cog" transform="rotate(146.25)" id="use13" /><use xlink:href="#cog" transform="rotate(157.5)" id="use14" /><use xlink:href="#cog" transform="rotate(168.75)" id="use15" /><use xlink:href="#cog" transform="scale(-1)" id="use16" /><use xlink:href="#cog" transform="rotate(-168.75)" id="use17" /><use xlink:href="#cog" transform="rotate(-157.5)" id="use18" /><use xlink:href="#cog" transform="rotate(-146.25)" id="use19" /><use xlink:href="#cog" transform="rotate(-135)" id="use20" /><use xlink:href="#cog" transform="rotate(-123.75)" id="use21" /><use xlink:href="#cog" transform="rotate(-112.5)" id="use22" /><use xlink:href="#cog" transform="rotate(-101.25)" id="use23" /><use xlink:href="#cog" transform="rotate(-90)" id="use24" /><use xlink:href="#cog" transform="rotate(-78.75)" id="use25" /><use xlink:href="#cog" transform="rotate(-67.5)" id="use26" /><use xlink:href="#cog" transform="rotate(-56.25)" id="use27" /><use xlink:href="#cog" transform="rotate(-45)" id="use28" /><use xlink:href="#cog" transform="rotate(-33.75)" id="use29" /><use xlink:href="#cog" transform="rotate(-22.5)" id="use30" /><use xlink:href="#cog" transform="rotate(-11.25)" id="use31" /></g><g id="mounts" style="fill:#ffffff;fill-opacity:1"><polygon id="mount" stroke="#000000" stroke-width="6" stroke-linejoin="round" points="-7,-42 0,-35 7,-42 " style="fill:#ffffff;fill-opacity:1;stroke:#ffffff;stroke-opacity:1" inkscape:label="mount" /><use xlink:href="#mount" transform="rotate(72)" id="use32" style="fill:#ffffff;fill-opacity:1;stroke:#ffffff;stroke-opacity:1" /><use xlink:href="#mount" transform="rotate(144)" id="use33" style="fill:#ffffff;fill-opacity:1;stroke:#ffffff;stroke-opacity:1" /><use xlink:href="#mount" transform="rotate(-144)" id="use34" style="fill:#ffffff;fill-opacity:1;stroke:#ffffff;stroke-opacity:1" /><use xlink:href="#mount" transform="rotate(-72)" id="use35" style="fill:#ffffff;fill-opacity:1;stroke:#ffffff;stroke-opacity:1" /></g></g><mask id="holes"><rect x="-60" y="-60" width="120" height="120" fill="#ffffff" id="rect35" /><circle id="hole" cy="-40" r="3" cx="0" /><use xlink:href="#hole" transform="rotate(72)" id="use36" /><use xlink:href="#hole" transform="rotate(144)" id="use37" /><use xlink:href="#hole" transform="rotate(-144)" id="use38" /><use xlink:href="#hole" transform="rotate(-72)" id="use39" /></mask></g><rect style="display:none;fill:none;fill-opacity:1;stroke:none;stroke-width:1.29777;stroke-linecap:round;stroke-linejoin:round;stroke-dasharray:none;stroke-opacity:1;paint-order:fill markers stroke" id="rect16" width="42.248516" height="42.248516" x="67.865425" y="133.46925" ry="0.014154593" inkscape:export-filename="bloopguy.png" inkscape:export-xdpi="99.120003" inkscape:export-ydpi="99.120003" /><rect style="display:none;fill:#7143a2;fill-opacity:1;stroke:#000000;stroke-width:1.2974;stroke-linecap:round;stroke-linejoin:round;stroke-dasharray:none;stroke-opacity:1;paint-order:fill markers stroke" id="rect14" width="5.8884292" height="10.399672" x="185.30795" y="2.40871" ry="3.1117926" transform="rotate(62.882832)" /><rect style="display:none;fill:#7143a2;fill-opacity:1;stroke:#000000;stroke-width:1.2974;stroke-linecap:round;stroke-linejoin:round;stroke-dasharray:none;stroke-opacity:1;paint-order:fill markers stroke" id="rect17" width="5.8884292" height="10.399672" x="104.28904" y="161.16084" ry="3.1117926" transform="matrix(-0.45581162,0.89007627,0.89007627,0.45581162,0,0)" /><rect style="display:none;fill:#7143a2;fill-opacity:1;stroke:#000000;stroke-width:1.2974;stroke-linecap:round;stroke-linejoin:round;stroke-dasharray:none;stroke-opacity:1;paint-order:fill markers stroke" id="rect18" width="5.8884292" height="10.399672" x="-90.59565" y="169.59068" ry="3.1117926" transform="matrix(-0.99996477,0.00839342,0.00839342,0.99996477,0,0)" /><rect style="display:none;fill:#7143a2;fill-opacity:1;stroke:#000000;stroke-width:4.72352;stroke-linecap:round;stroke-linejoin:round;stroke-dasharray:none;stroke-opacity:1;paint-order:fill markers stroke" id="rect15" width="19.910839" height="14.10526" x="78.729614" y="155.55991" ry="4.2205801" /><path id="rect10" style="fill:#7143a2;fill-opacity:1;stroke-width:1.29836;stroke-linecap:round;stroke-linejoin:round;paint-order:fill markers stroke" d="m 31.757341,160.07401 c 10.313985,-0.14693 20.628851,-1.89716 30.941712,0 0.008,0.001 0.0142,0.006 0.0142,0.0142 v 19.96923 c 0,0.008 -0.007,0.0123 -0.0142,0.0141 -10.155999,2.42248 -20.435618,2.39297 -30.588377,-0.47751 0,0 -0.260009,-0.52253 -0.260053,-0.53036 l -0.107431,-18.97549 c -4.4e-5,-0.008 0.0063,-0.0142 0.01415,-0.0142 z" sodipodi:nodetypes="cssssssssc" /><ellipse style="fill:#fffbf2;fill-opacity:1;stroke:none;stroke-width:1.59773;stroke-linecap:round;stroke-linejoin:round;stroke-dasharray:none;stroke-opacity:1;paint-order:fill markers stroke" id="path10" cx="39.60495" cy="169.71382" rx="7.0752101" ry="7.4444685" /><ellipse style="fill:#fffbf2;fill-opacity:1;stroke:none;stroke-width:1.71651;stroke-linecap:round;stroke-linejoin:round;stroke-dasharray:none;stroke-opacity:1;paint-order:fill markers stroke" id="ellipse10" cx="54.913811" cy="169.90672" rx="7.6468797" ry="7.9500995" /><circle style="fill:none;fill-opacity:1;stroke:#ffffff;stroke-width:1.29836;stroke-linecap:round;stroke-linejoin:round;stroke-dasharray:none;stroke-opacity:1;paint-order:fill markers stroke" id="path1-6" cx="82.78553" cy="150.75421" r="7.2515659" /><circle style="fill:none;fill-opacity:1;stroke:#ffffff;stroke-width:1.29836;stroke-linecap:round;stroke-linejoin:round;stroke-dasharray:none;stroke-opacity:1;paint-order:fill markers stroke" id="path2" cx="98.094391" cy="150.86163" r="8.0572958" /><path style="fill:none;fill-opacity:1;stroke:#ffffff;stroke-width:1.29836;stroke-linecap:round;stroke-linejoin:round;stroke-dasharray:none;stroke-opacity:1;paint-order:fill markers stroke" d="m 74.923771,140.9215 c 16.71228,-0.84611 22.804542,-1.15143 30.154319,-0.55685 2.80973,0.2273 0.81569,20.07685 0.81569,20.07685" id="path3" sodipodi:nodetypes="csc" /><path style="fill:none;fill-opacity:1;stroke:#ffffff;stroke-width:1.29836;stroke-linecap:round;stroke-linejoin:round;stroke-dasharray:none;stroke-opacity:1;paint-order:fill markers stroke" d="m 75.291256,160.4415 c 0,0 -0.730118,-26.92416 -1.016664,-28.48684" id="path4" sodipodi:nodetypes="cc" /><path style="fill:none;fill-opacity:1;stroke:#ffffff;stroke-width:1.29836;stroke-linecap:round;stroke-linejoin:round;stroke-dasharray:none;stroke-opacity:1;paint-order:fill markers stroke" d="m 75.291256,160.4415 c 9.859151,2.63652 19.933155,1.88324 30.602524,0.47753" id="path5" sodipodi:nodetypes="cc" /><ellipse style="fill:#ffffff;fill-opacity:1;stroke:none;stroke-width:1.29836;stroke-linecap:round;stroke-linejoin:round;stroke-dasharray:none;stroke-opacity:1;paint-order:fill markers stroke" id="path8" cx="56.484051" cy="163.9417" rx="3.464637" ry="4.2614141" transform="rotate(-9.718425)" /><ellipse style="fill:#ffffff;fill-opacity:1;stroke:none;stroke-width:1.29836;stroke-linecap:round;stroke-linejoin:round;stroke-dasharray:none;stroke-opacity:1;paint-order:fill markers stroke" id="ellipse9" cx="110.7672" cy="142.67955" rx="3.464637" ry="4.2614141" transform="rotate(5.1545329)" /></g></svg>
